<?xml version="1.0" encoding="UTF-8" standalone="no"?>
<!DOCTYPE svg PUBLIC "-//W3C//DTD SVG 1.1//EN"
"http://www.w3.org/Graphics/SVG/1.1/DTD/svg11.dtd">


<!-- Page 1 -->
<svg x="0" y="0" width="674" height="621" viewBox="0 0 674 621" version="1.1" xmlns="http://www.w3.org/2000/svg" xmlns:xlink="http://www.w3.org/1999/xlink"
style="display: block;margin-left: auto;margin-right: auto;">
<defs>

<style type="text/css"><![CDATA[

.g0_1{
fill: #FFFFFF;
}
.g1_1{
fill: #1A4566;
}
.g2_1{
fill: none;
stroke: #1A4566;
stroke-width: 4.5833335;
stroke-linecap: butt;
stroke-linejoin: miter;
}
.g3_1{
fill: none;
stroke: #1A4566;
stroke-width: 1.5277778;
stroke-linecap: butt;
stroke-linejoin: miter;
}

]]></style>

</defs>
<path d="M0,0
L0,621
L674,621
L674,0 Z " 
fill="#FFFFFF" stroke="none" />
<path d="M601.8,131.9H60.7l6.5,9.6L199.6,336.9l25.2,37.3H204.1v12.2h29L260,426.1H238.6v12.2h29.6L332,532.4l5,7.4l5.1,-7.4l63.7,-94.1h29.8V426.1H414.1L441,386.4h29V374.2H449.2l25.3,-37.3L606.9,141.5l6.4,-9.6Z" class="g0_1" />
<path d="M265.7,398.7c0,-.8,-.1,-1.4,-.3,-1.7c-.2,-.3,-.7,-.4,-1.4,-.4h-1.2v7.8h1.3c.6,0,1,-.1,1.3,-.4c.2,-.3,.3,-.7,.3,-1.3Zm.1,17.2c-.2,-1.7,-.5,-3.3,-.7,-4.9c-.2,-1.6,-.5,-3.2,-.8,-4.8c-.1,0,-.2,0,-.2,0h-1.3v9.7h-2V394.6H264c1.3,0,2.2,.3,2.8,.8c.6,.6,.9,1.6,.9,3v4.3c0,1.5,-.5,2.5,-1.5,3.1c.3,1.7,.6,3.4,.9,5.1c.3,1.6,.6,3.3,.8,5Z" class="g1_1" />
<path d="M276.6,410.5c-.2,-1.8,-.4,-3.6,-.6,-5.4c-.3,-1.8,-.5,-3.6,-.7,-5.5c-.2,1.9,-.4,3.7,-.7,5.5c-.2,1.8,-.4,3.6,-.7,5.4Zm.7,5.4l-.4,-3.6h-3.2l-.5,3.6h-1.9l2.9,-21.3h2.3l2.8,21.3Z" class="g1_1" />
<path d="M283.2,415.9V394.6h2v19.3H289v2Z" class="g1_1" />
<path d="M292.8,415.9V394.6h2v19.3h3.8v2Z" class="g1_1" />
<path d="M303.7,415.9v-9.6l-3,-11.7h2c.2,.7,.4,1.5,.6,2.3c.2,.9,.4,1.7,.6,2.5c.2,.9,.4,1.6,.5,2.3c.2,.7,.3,1.3,.3,1.6c.1,-.3,.2,-.9,.4,-1.6c.1,-.7,.3,-1.4,.5,-2.3c.2,-.8,.4,-1.6,.6,-2.5c.2,-.8,.5,-1.6,.6,-2.3h2l-3.2,11.7v9.6Z" class="g1_1" />
<path d="M323.2,408.1H325v4.4c0,1.2,-.2,2.1,-.7,2.7c-.5,.6,-1.3,.9,-2.4,.9c-2.3,0,-3.4,-1.2,-3.4,-3.6V398c0,-2.4,1.1,-3.7,3.4,-3.7c2.1,0,3.1,1.2,3.1,3.7v3.7h-1.8V398c0,-.6,-.1,-1,-.3,-1.3c-.1,-.2,-.5,-.4,-1,-.4c-.9,0,-1.4,.6,-1.4,1.7v14.5c0,1.1,.5,1.7,1.4,1.7c.5,0,.8,-.2,1,-.4c.2,-.3,.3,-.7,.3,-1.3Z" class="g1_1" />
<path d="M333.8,398c0,-1.1,-.4,-1.7,-1.4,-1.7c-.9,0,-1.3,.6,-1.3,1.7v14.5c0,1.1,.4,1.7,1.3,1.7c1,0,1.4,-.6,1.4,-1.7Zm-4.7,0c0,-2.5,1.1,-3.7,3.3,-3.7c2.3,0,3.4,1.2,3.4,3.7v14.5c0,2.4,-1.1,3.6,-3.4,3.6c-2.2,0,-3.3,-1.2,-3.3,-3.6Z" class="g1_1" />
<path d="M348.1,415.9v-6.5c0,-1.5,0,-3.1,.1,-4.6c0,-1.5,0,-3,0,-4.6l-2.3,15.7h-1.7l-2.3,-15.7c0,1.6,0,3.1,0,4.6c0,1.5,0,3.1,0,4.6v6.5h-1.8V394.6h2.7l2.2,16.6l2.3,-16.6H350v21.3Z" class="g1_1" />
<path d="M359.5,398.4c0,-.6,-.2,-1.1,-.4,-1.4c-.3,-.3,-.7,-.4,-1.4,-.4h-1.3v7.2h1.4c.5,0,1,-.1,1.2,-.4c.3,-.3,.5,-.8,.5,-1.4Zm-5.1,17.5V394.6h3.3c1.3,0,2.2,.3,2.8,.9c.6,.6,.9,1.6,.9,2.9v3.5c0,1.4,-.3,2.3,-.9,3c-.6,.6,-1.5,.9,-2.7,.9h-1.4v10.1Z" class="g1_1" />
<path d="M370,394.6h2v17.9c0,2.4,-1.1,3.6,-3.4,3.6c-2.2,0,-3.3,-1.2,-3.3,-3.6V394.6h1.9v17.9c0,1.1,.5,1.7,1.4,1.7c.9,0,1.4,-.6,1.4,-1.7Z" class="g1_1" />
<path d="M378.1,415.9V396.6h-2.4v-2h6.7v2H380v19.3Z" class="g1_1" />
<path d="M386.3,415.9V394.6h5.6v2h-3.7V404h2.6v2h-2.6v7.9H392v2Z" class="g1_1" />
<path d="M401,398.7c0,-.8,-.1,-1.4,-.3,-1.7c-.2,-.3,-.7,-.4,-1.4,-.4h-1.2v7.8h1.3c.6,0,1,-.1,1.3,-.4c.2,-.3,.3,-.7,.3,-1.3Zm.1,17.2c-.2,-1.7,-.5,-3.3,-.7,-4.9c-.2,-1.6,-.5,-3.2,-.8,-4.8c-.1,0,-.2,0,-.2,0h-1.3v9.7h-2V394.6h3.2c1.3,0,2.2,.3,2.8,.8c.6,.6,.9,1.6,.9,3v4.3c0,1.5,-.5,2.5,-1.5,3.1c.3,1.7,.6,3.4,.9,5.1c.3,1.6,.6,3.3,.8,5Z" class="g1_1" />
<path d="M411.4,409.6c0,-.4,0,-.6,0,-.8c0,-.2,-.1,-.4,-.1,-.6c-.1,-.1,-.2,-.3,-.2,-.4c-.1,-.1,-.2,-.3,-.3,-.4c-.3,-.3,-.6,-.6,-.8,-.9c-.3,-.3,-.6,-.5,-.8,-.8c-.3,-.3,-.6,-.6,-.9,-.9c-.3,-.3,-.6,-.6,-.9,-1c-.3,-.4,-.5,-.8,-.6,-1.2c0,-.4,-.1,-1,-.1,-1.6v-3.1c0,-2.4,1.1,-3.6,3.4,-3.6c1.1,0,2,.3,2.5,.9c.4,.6,.7,1.5,.7,2.7v3.8h-1.8v-3.6c0,-.5,-.1,-.9,-.3,-1.3c-.2,-.3,-.6,-.5,-1.1,-.5c-.9,0,-1.4,.5,-1.4,1.6V401c0,.5,.1,.8,.1,1c.1,.2,.2,.4,.4,.7c.5,.6,1,1.2,1.6,1.7c.5,.5,1.1,1.1,1.6,1.7c.2,.3,.4,.5,.5,.7c.1,.2,.2,.5,.3,.7c.1,.3,.1,.6,.1,.9c.1,.4,.1,.7,.1,1.1v3.1c0,1.1,-.3,2,-.8,2.6c-.5,.6,-1.4,.9,-2.5,.9c-1.2,0,-2,-.3,-2.6,-.9c-.5,-.6,-.8,-1.5,-.8,-2.6v-4.5h1.9v4.2c0,.6,.1,1,.3,1.4c.2,.3,.6,.5,1.1,.5c.5,0,.9,-.2,1.1,-.4c.2,-.3,.3,-.7,.3,-1.2Z" class="g1_1" />
<path d="M255.5,309.7c0,7.5,-3,11.1,-9.2,11.1h-9.4v-57h9.6c3.6,0,6,.9,7.2,2.5c1.2,1.8,1.8,4.8,1.8,9ZM236.9,196.5h9.4c3.2,0,5.4,.8,6.7,2.3c1.3,1.6,1.9,4.5,1.9,8.6v32.5c0,3.4,-.6,5.9,-1.9,7.3c-1.3,1.4,-3.4,2.1,-6.5,2.1h-9.6Zm25.7,59.1c5,-2.6,7.6,-8.3,7.6,-17v-31c0,-9.6,-1.9,-16.6,-5.5,-20.9c-3.7,-4.4,-9.9,-6.6,-18.4,-6.6H200l20.7,12V336.8h25.6c8.5,0,15,-2.2,19.3,-6.5c4.3,-4.3,6.4,-11.2,6.4,-20.6V272.8c0,-5.8,-1.2,-10.2,-3.6,-12.9c-1.7,-1.9,-3.6,-3.4,-5.8,-4.3Z" class="g1_1" />
<path d="M301,295.8c1.7,-12.9,3.3,-25.7,5,-38.4c1.3,-10.3,2.7,-21,4,-31.8c1.2,10.8,2.5,21.5,3.8,31.8c1.6,12.7,3.2,25.5,4.8,38.4Zm.3,-115.7L279.8,336.8h15.8l3.4,-26h21.5l3.4,26h16.2L319.7,180.1Z" class="g1_1" />
<path d="M365.5,310.6c0,7.5,-2.7,11.1,-8.3,11.1c-3.9,0,-6.8,-.4,-8.6,-1.2l-1.3,-.6v16.3l.5,.3c1.9,1,5,1.4,9.4,1.4c7.9,0,14,-2.2,18.2,-6.6c4.2,-4.3,6.3,-11.3,6.3,-20.7V180.1H365.5Z" class="g1_1" />
<path d="M412.3,295.8c1.7,-12.9,3.4,-25.7,5,-38.4c1.4,-10.3,2.7,-21,4,-31.8c1.3,10.8,2.5,21.5,3.8,31.8c1.6,12.7,3.2,25.5,4.8,38.4ZM451.8,180.1H431.1v.2l-.1,-.2H412.7L391.1,336.8H407l3.4,-26h21.4l3.4,26h16.2L432.5,191.3Z" class="g1_1" />
<path d="M271.7,432.2l65.4,96.7l65.3,-96.7M424.2,138.1H601L469.1,333.5l-31.7,46.8m-200.7,0L205.1,333.5L73.1,138.1H250" class="g2_1" />
<path d="M465.5,381.8H208.7v-3H465.5v3Z" class="g1_1" />
<path d="M431,433.7H243.1v-3.1H431v3.1Z" class="g1_1" />
<path d="M352.9,450.5l-31.6,31.6m31.6,0L321.3,450.5" class="g3_1" />
<path d="M320.3,471.5c-.2,0,-.4,-.2,-.4,-.4c0,-.3,.2,-.5,.4,-.5c.3,0,.5,.2,.5,.5c0,.2,-.2,.4,-.5,.4m-4.1,-4.4l-1.1,-.6l1.1,-.6Zm4.1,-5.8l.7,1.1h-1.3Zm.2,9v-7.5h1.1l-1.3,-2.2l-1.2,2.2h1.1v3.5h-3.7v-1l-2.1,1.2l2.1,1.2v-1h3.7v3.6c-.4,0,-.7,.4,-.7,.8c0,.4,.4,.8,.8,.8c.5,0,.9,-.4,.9,-.8c0,-.4,-.3,-.8,-.7,-.8Z" class="g1_1" />
<path d="M337.1,453.7c0,.3,-.3,.5,-.5,.5c-.3,0,-.5,-.2,-.5,-.5c0,-.2,.2,-.4,.5,-.4c.2,0,.5,.2,.5,.4m-4.2,-8.2l1.2,.3l-.9,.9Zm7.4,0l-.3,1.2l-.9,-.9Zm-.9,1.1l.7,.8l.7,-2.4l-2.4,.6l.7,.8l-2.5,2.5L334,446.4l.8,-.8l-2.4,-.6l.6,2.4l.8,-.8l2.6,2.7v3.6c-.4,.1,-.6,.4,-.6,.8c0,.5,.3,.9,.8,.9c.4,0,.8,-.4,.8,-.9c0,-.4,-.3,-.7,-.6,-.8v-3.6Z" class="g1_1" />
<path d="M354.1,469.8c0,.3,-.2,.5,-.4,.5c-.3,0,-.5,-.2,-.5,-.5c0,-.2,.2,-.4,.5,-.4c.2,0,.4,.2,.4,.4m-4.4,-3.9l-1.1,-.6l1.1,-.7Zm7.7,-4.3l-.3,1.2l-.9,-.9Zm-.9,1.1l.8,.8l.6,-2.4l-2.4,.6l.8,.8l-2.7,2.6H350V464l-2.1,1.3l2.1,1.2v-1.1h3.5V469c-.4,.1,-.7,.4,-.7,.8c0,.5,.4,.9,.9,.9c.4,0,.8,-.4,.8,-.9c0,-.4,-.3,-.7,-.6,-.8v-3.7Z" class="g1_1" />
<path d="M341.1,479.3l1.2,.7l-1.2,.6Zm-3.6,7.3c0,.2,-.2,.4,-.4,.4c-.3,0,-.5,-.2,-.5,-.4c0,-.3,.2,-.5,.5,-.5c.2,0,.4,.2,.4,.5m-4.6,-6l-1.1,-.6l1.1,-.7Zm10,-.6l-2.1,-1.3v1.1h-7.5v-1.1l-2.2,1.3l2.2,1.2v-1.1h3.6v5.7c-.4,0,-.7,.4,-.7,.8c0,.4,.4,.8,.9,.8c.4,0,.8,-.4,.8,-.8c0,-.4,-.3,-.8,-.7,-.8v-5.7h3.6v1.1Z" class="g1_1" />
<path d="M384,104.9l-3.2,-3.8l-3.6,3.5l-12.1,12.2L346.4,96.9l-2.7,-2.8l-3.2,2.2L338,98L325.5,85.5l-3.8,-3.7l-3.1,4.3l-22.2,30.1l-6.8,-3l-3.1,-1.4l-2.2,2.5l-37.4,42.4l6.5,6.4l21.3,-19.7v28.4h10.4l-2,16.1l7.1,-16.1H395.4l.4,.5l-.2,-.5H401V142.3l19.5,20.5l6.9,-6.1Z" class="g0_1" />
<path fill-rule="evenodd" d="M311.9,120.9L313.6,107l-22,50.2l2.6,-21.1l-9.1,-8.5l-34.8,32.1l37.4,-42.3l10.2,4.5L322.3,88.8L337.4,104l5.7,-3.9l21.8,23.3l15.6,-15.6l43.4,51.9L382.1,115.6l-6.4,18.5l5.8,14.7L344.1,105.5l-.4,14.8l21.2,39.4l-39.6,-61Z" class="g1_1" />

</svg>
